<svg width="40" height="40" viewBox="0 0 40 40" fill="none" xmlns="http://www.w3.org/2000/svg">
<path d="M31.7188 13.8906C31.8757 13.8908 32.0015 14.0166 32 14.1719C31.8494 23.8941 23.9182 31.7747 14.1338 31.9238C13.9784 31.9255 13.8508 31.7999 13.8506 31.6445V27.3848C13.8506 27.2325 13.975 27.1097 14.1289 27.1064C21.2448 26.9606 27.0048 21.236 27.1523 14.166C27.1556 14.0122 27.2788 13.8887 27.4326 13.8887L31.7188 13.8906Z" fill="#3694FC"></path>
<path d="M20.2559 8.07715C21.8714 8.07721 23.1804 9.37836 23.1807 10.9824C23.1807 12.5867 21.8716 13.8886 20.2559 13.8887C18.6401 13.8887 17.3301 12.5867 17.3301 10.9824C17.3303 9.37832 18.6402 8.07715 20.2559 8.07715Z" fill="#3694FC"></path>
<path d="M10.9258 8.07617C12.5412 8.07639 13.8503 9.3775 13.8506 10.9814C13.8506 12.5856 12.5414 13.8875 10.9258 13.8877C9.31003 13.8877 8 12.5857 8 10.9814C8.00025 9.37736 9.31018 8.07617 10.9258 8.07617Z" fill="#3694FC"></path>
</svg>