<svg xmlns="http://www.w3.org/2000/svg" width="254.555" height="32" viewBox="0 0 254.555 32" fill="none">
  <path d="M 247.596 0.081 L 254.555 0.081 L 254.555 1.935 L 254.47 7.698 C 254.47 14.791 250.651 18.297 242.928 18.297 L 240.637 18.297 L 240.637 31.919 L 233.678 31.919 L 233.678 18.297 L 231.386 18.297 C 223.664 18.297 219.845 14.791 219.845 7.698 L 219.845 0.04 L 226.761 0.04 L 226.846 6.892 C 226.846 10.358 228.671 12.05 232.362 12.05 L 241.995 12.05 C 245.771 12.05 247.596 10.398 247.596 6.932 L 247.596 0.081 Z" fill="currentColor" fill-rule="nonzero"></path>
  <path d="M 33.48 25.592 L 33.48 31.96 C 33.48 31.96 11.16 31.96 11.16 32 C 3.734 32 0 28.453 0 21.36 L 0 10.72 C 0 3.627 3.734 0.081 11.16 0.081 L 33.522 0.081 L 33.522 6.448 L 12.093 6.448 C 8.487 6.448 6.704 8.181 6.704 11.567 L 6.704 20.474 C 6.704 23.899 8.487 25.592 12.093 25.592 L 33.48 25.592 Z" fill="currentColor" fill-rule="nonzero"></path>
  <path d="M 63.607 31.919 L 52.447 31.96 C 44.979 31.96 41.287 28.413 41.287 21.28 L 41.287 10.64 C 41.287 3.547 45.021 0 52.447 0 L 63.607 0 C 71.033 0 74.767 3.547 74.767 10.64 L 74.767 21.28 C 74.767 28.373 71.033 31.919 63.607 31.919 Z M 62.504 25.552 L 53.55 25.552 C 49.816 25.592 47.992 23.819 47.992 20.232 L 47.992 11.728 C 47.992 8.182 49.477 6.408 52.447 6.408 L 62.504 6.408 C 66.238 6.408 68.105 8.182 68.105 11.728 L 68.105 20.232 C 68.105 23.779 66.238 25.552 62.504 25.552 Z" fill="currentColor" fill-rule="evenodd"></path>
  <path d="M 116.054 14.952 L 116.054 31.96 L 93.819 32 C 86.393 32 82.659 28.453 82.659 21.36 L 82.659 10.72 C 82.659 3.627 86.393 0.081 93.819 0.081 L 116.139 0.081 L 116.139 6.448 L 94.71 6.448 C 91.103 6.448 89.321 8.181 89.321 11.567 L 89.321 20.474 C 89.321 23.899 91.103 25.592 94.71 25.592 L 109.392 25.592 L 109.392 14.952 L 116.054 14.952 Z" fill="currentColor" fill-rule="nonzero"></path>
  <path d="M 130.566 31.96 L 130.566 9.713 L 150.552 31.96 L 157.383 31.96 L 157.383 0.04 L 150.679 0.04 L 150.679 22.287 L 130.693 0.04 L 123.861 0.04 L 123.861 31.96 L 130.566 31.96 Z" fill="currentColor" fill-rule="nonzero"></path>
  <path d="M 171.853 0.04 L 171.853 31.96 L 165.149 31.96 L 165.149 0.04 L 171.853 0.04 Z" fill="currentColor" fill-rule="nonzero"></path>
  <path d="M 213.183 31.96 L 213.183 14.952 C 213.183 14.952 206.478 14.952 206.436 14.912 L 206.436 25.552 L 191.754 25.552 C 188.147 25.552 186.365 23.859 186.365 20.433 L 186.365 11.526 C 186.365 8.101 188.147 6.408 191.754 6.408 L 213.183 6.408 L 213.183 0.04 L 190.863 0.04 C 183.437 0.04 179.703 3.587 179.703 10.68 L 179.703 21.32 C 179.703 28.413 183.437 31.96 190.863 31.96 L 213.183 31.96 Z" fill="currentColor" fill-rule="nonzero"></path>
</svg>